<svg width="655" height="654" viewBox="0 0 655 654" fill="none" xmlns="http://www.w3.org/2000/svg">
<path d="M577 327C577 465.071 465.071 577 327 577C188.929 577 77 465.071 77 327C77 188.929 188.929 77 327 77C465.071 77 577 188.929 577 327ZM137 327C137 431.934 222.066 517 327 517C431.934 517 517 431.934 517 327C517 222.066 431.934 137 327 137C222.066 137 137 222.066 137 327Z" fill="#999999"/>
<path d="M577 327C577 465.071 465.071 577 327 577C188.929 577 77 465.071 77 327C77 188.929 188.929 77 327 77C465.071 77 577 188.929 577 327ZM117 327C117 442.98 211.02 537 327 537C442.98 537 537 442.98 537 327C537 211.02 442.98 117 327 117C211.02 117 117 211.02 117 327Z" fill="#333333"/>
<path d="M327 137V77" stroke="white"/>
<path d="M327 517V577" stroke="white"/>
<path d="M517.5 327H577.5" stroke="white"/>
<path d="M137 327H77" stroke="white"/>
<path d="M192.723 192.827L150.296 150.4" stroke="white"/>
<path d="M461.423 461.527L503.85 503.954" stroke="white"/>
<path d="M461.777 192.473L504.203 150.047" stroke="white"/>
<path d="M192.723 461.527L150.296 503.953" stroke="white"/>
<path d="M254.309 151.559L231.348 96.1259" stroke="#AAAAAA"/>
<path d="M399.729 502.633L422.69 558.066" stroke="#AAAAAA"/>
<path d="M503.018 254.195L558.451 231.234" stroke="#AAAAAA"/>
<path d="M151.482 399.806L96.0491 422.767" stroke="#AAAAAA"/>
<path d="M151.617 254.521L96.1844 231.56" stroke="#AAAAAA"/>
<path d="M502.691 399.941L558.124 422.902" stroke="#AAAAAA"/>
<path d="M400.055 151.232L423.016 95.7993" stroke="#AAAAAA"/>
<path d="M254.444 502.768L231.483 558.201" stroke="#AAAAAA"/>
</svg>
