<svg width="1463" height="732" viewBox="0 0 1463 732" fill="none" xmlns="http://www.w3.org/2000/svg">
<path d="M1459.51 445.739L9.51352 724.739C11.0335 706.155 9.64739 695.669 0 676.739L1439.51 411.239C1452.91 421.03 1456.73 428.956 1459.51 445.739Z" fill="#C4C4C4"/>
<path d="M868.514 240.239L860.514 76.7385L858.014 5.23852C871.972 -1.60101 879.874 -0.973858 894.014 2.73853L897.014 71.7385L903.014 231.739C918.595 345.939 943.726 387.239 1024.01 411.739L1289.01 474.239C1301.97 479.18 1303.23 484.476 1303.51 494.739C1296.46 516.332 1290.09 520.177 1276.01 517.739L1139.51 482.239L1009.51 448.239C937.21 412.874 900.594 382.611 868.514 240.239Z" fill="#C4C4C4"/>
<path d="M292.514 38.7385L307.514 310.739C338.97 479.873 373.488 504.316 434.491 547.515L435.514 548.239L643.514 655.739C670.826 647.163 674.036 636.534 664.514 610.239L454.514 508.239C389.122 481.348 367.681 431.862 347.514 302.739L334.514 35.2385C314.994 33.1376 305.529 33.6056 292.514 38.7385Z" fill="#C4C4C4"/>
<path d="M289.014 112.739L286.514 39.7385C303.979 41.602 332.97 40.8991 471.514 31.7385C481.865 35.9866 489.376 38.3984 505.514 42.7385C633.903 35.9604 691.049 32.2908 736.514 26.2385C746.628 22.4467 751.627 19.5583 759.514 13.2385C821.329 10.0042 839.837 7.75589 854.014 3.23853C863.018 7.64188 872.697 8.26398 899.014 5.73853C899.014 5.73853 904.014 65.7385 901.514 69.7385C899.014 73.7385 762.514 83.7385 762.514 83.7385L759.514 80.7385L511.014 99.2385C507.256 98.6342 505.821 99.2791 505.514 103.739L377.514 112.739C361.259 111.335 352.593 111.162 338.514 112.739C320.189 114.882 309.527 115.257 289.014 112.739Z" fill="#333333" stroke="black"/>
<path d="M262.014 633.239C256.692 626.441 253.732 623.431 248.514 620.239L5.01355 666.739C17.2996 694.725 18.9746 708.364 17.0135 730.739L269.014 681.239C272.504 664.61 270.066 653.792 262.014 633.239Z" fill="#333333" stroke="black"/>
<path d="M542.014 548.238C548.067 547.175 551.46 547.26 557.514 548.238C577.413 557.517 603.829 570.106 657.514 595.738C662.192 598.225 664.161 600.923 666.514 608.238C652.769 594.606 630.477 611.995 629.514 619.239C625.231 629.037 618.495 658.196 646.848 655.108C647.736 654.954 648.623 654.826 649.514 654.738C648.592 654.892 647.704 655.015 646.848 655.108C638.233 656.603 629.49 660.594 616.514 654.738C593.308 643.89 569.678 629.537 517.014 595.738C514.146 572.611 518.683 561.87 542.014 548.238Z" fill="#333333"/>
<path d="M542.014 548.238C548.067 547.175 551.46 547.26 557.514 548.238C577.413 557.517 603.829 570.106 657.514 595.738C662.192 598.225 664.161 600.923 666.514 608.238C652.769 594.606 630.477 611.995 629.514 619.239C625.101 629.333 618.086 659.975 649.514 654.738C639.992 655.675 630.828 661.198 616.514 654.738C593.308 643.89 569.678 629.537 517.014 595.738C514.146 572.611 518.683 561.87 542.014 548.238Z" stroke="black"/>
<path d="M299.514 316.239L308.014 311.239C322.338 305.982 331.038 304.753 347.014 303.739C352.293 305.716 353.295 307.557 354.014 311.239C372.712 410.026 392.379 462.555 427.514 488.239C442.087 494.36 448.24 498.539 454.514 507.739C428.927 497.942 420.378 502.4 413.514 524.739C415.494 540.109 420.7 544.252 434.014 547.239C427.595 549.746 423.792 550.316 416.014 547.239C353.437 505.487 325.61 461.489 299.514 316.239Z" fill="#333333" stroke="black"/>
<path d="M906.514 233.239C886.27 232.859 876.419 235.832 861.014 245.739C885.874 376 917.696 412.029 988.014 448.239C1001.36 453.077 1005.55 452.574 1009.51 448.239C995.05 439.182 991.567 434.407 998.514 418.239C1006.58 409.52 1012.05 408.027 1023.01 409.739L1014.01 403.239C951.019 384.92 930.581 340.607 906.514 233.239Z" fill="#333333" stroke="black"/>
<path d="M1163.51 438.239C1159.35 439.072 1148.31 445.139 1137.51 462.739C1137.13 481.125 1139.67 485.892 1146.01 490.739L1276.51 525.739C1286.26 523.963 1289.93 521.321 1295.51 515.739C1272.48 517.806 1266.72 511.858 1267.01 490.739C1272.82 475.252 1279.85 471.596 1295.51 469.239L1163.51 438.239Z" fill="#333333" stroke="black"/>
<path d="M1434.51 407.238L1298.01 431.238C1314.55 454.101 1315.48 465.49 1308.01 484.238L1448.01 456.738C1461.23 449.705 1463.61 444.039 1460.01 431.238C1455.84 417.828 1451.39 411.781 1434.51 407.238Z" fill="#333333" stroke="black"/>
</svg>
