<svg width="500" height="500" viewBox="0 0 500 500" fill="none" xmlns="http://www.w3.org/2000/svg">
<path d="M250 0C308.851 7.01787e-07 365.815 20.7614 410.864 58.6292C455.913 96.497 486.159 149.043 496.277 207.018C506.395 264.992 495.737 324.677 466.178 375.566C436.62 426.455 390.056 465.285 334.684 485.22C279.313 505.155 218.684 504.917 163.471 484.548C108.258 464.179 62.0001 424.984 32.8421 373.865C3.68404 322.745 -6.50531 262.978 4.06786 205.085C14.641 147.192 45.2989 94.8844 90.6441 57.3716L106.58 76.6345C65.769 110.396 38.1769 157.472 28.6611 209.576C19.1452 261.68 28.3156 315.471 54.5579 361.478C80.8001 407.486 122.432 442.761 172.124 461.093C221.815 479.425 276.382 479.64 326.216 461.698C376.05 443.757 417.958 408.81 444.561 363.01C471.163 317.21 480.756 263.493 471.65 211.316C462.543 159.139 435.322 111.847 394.778 77.7663C354.233 43.6853 302.966 25 250 25L250 0Z" fill="#C4C4C4"/>
</svg>
